{"title":"Wentworth - S04E07 - Panic Button","uid":15076445,"size":1147874510,"categoryP":"video","categoryS":"tv_shows","magnet":"?xt=urn:btih:5d8ae95d00fd0e8fb9ad40e416d20e4b211bdc24&amp;dn=Wentworth+-+S04E07+-+Panic+Button&amp;tr=udp%3A%2F%2Ftracker.leechers-paradise.org%3A6969&amp;tr=udp%3A%2F%2Fzer0day.ch%3A1337&amp;tr=udp%3A%2F%2Fopen.demonii.com%3A1337&amp;tr=udp%3A%2F%2Ftracker.coppersurfer.tk%3A6969&amp;tr=udp%3A%2F%2Fexodus.desync.com%3A6969","seeders":6,"leechers":0,"uploader":"Bullrout","files":1,"time":1466831603,"description":"Wentworth - S04E07 - Panic Button\r\n\r\nFerguson is rattled when she discovers that Bea will be supporting Jesper s evidence in court. Meanwhile, Bea seems to be losing control of the women so she forces a prison-wide vote to end the debate. \r\n\r\nComplete name                            : Wentworth - S04E07 - Panic Button.mkv\r\nFormat                                   : Matroska\r\nFormat version                           : Version 4 / Version 2\r\nFile size                                : 1.07 GiB\r\nDuration                                 : 46mn 39s\r\nOverall bit rate mode                    : Variable\r\nOverall bit rate                         : 3 281 Kbps\r\nEncoded date                             : UTC 2016-06-25 02:37:36\r\nWriting application                      : mkvmerge v9.2.0 ('Photograph') 64bit\r\nWriting library                          : libebml v1.3.3 + libmatroska v1.4.4\r\n\r\nVideo\r\nID                                       : 2\r\nFormat                                   : AVC\r\nFormat/Info                              : Advanced Video Codec\r\nFormat profile                           :   \r\nFormat settings, CABAC                   : Yes\r\nFormat settings, ReFrames                : 3 frames\r\nCodec ID                                 : V_MPEG4/ISO/AVC\r\nDuration                                 : 46mn 39s\r\nBit rate mode                            : Variable\r\nBit rate                                 : 2 895 Kbps\r\nMaximum bit rate                         : 3 000 Kbps\r\nWidth                                    : 1 280 pixels\r\nHeight                                   : 720 pixels\r\nDisplay aspect ratio                     : 16:9\r\nFrame rate mode                          : Constant\r\nFrame rate                               : 25.000 fps\r\nStandard                                 : PAL\r\nColor space                              : YUV\r\nChroma subsampling                       : 4:2:0\r\nBit depth                                : 8 bits\r\nScan type                                : Progressive\r\nBits/(Pixel*Frame)                       : 0.126\r\nStream size                              : 966 MiB (88%)\r\nWriting library                          : x264 core 112\r\nDefault                                  : Yes\r\nForced                                   : No\r\nColor range                              : Limited\r\nColor primaries                          : BT.709\r\nTransfer characteristics                 : BT.709\r\nMatrix coefficients                      : BT.709\r\n\r\nAudio\r\nID                                       : 1\r\nFormat                                   : AC-3\r\nFormat/Info                              : Audio Coding 3\r\nMode extension                           : CM (complete main)\r\nFormat settings, Endianness              : Big\r\nCodec ID                                 : A_AC3\r\nDuration                                 : 46mn 39s\r\nBit rate mode                            : Constant\r\nBit rate                                 : 384 Kbps\r\nChannel(s)                               : 6 channels\r\nChannel positions                        : Front: L C R, Side: L R, LFE\r\nSampling rate                            : 48.0 KHz\r\nFrame rate                               : 31.250 fps (1536 spf)\r\nCompression mode                         : Lossy\r\nStream size                              : 128 MiB (12%)\r\nDefault                                  : Yes\r\nForced                                   : No","torrent":{"xt":"urn:btih:5d8ae95d00fd0e8fb9ad40e416d20e4b211bdc24","amp;dn":"Wentworth+-+S04E07+-+Panic+Button","amp;tr":["udp%3A%2F%2Ftracker.leechers-paradise.org%3A6969","udp%3A%2F%2Fzer0day.ch%3A1337","udp%3A%2F%2Fopen.demonii.com%3A1337","udp%3A%2F%2Ftracker.coppersurfer.tk%3A6969","udp%3A%2F%2Fexodus.desync.com%3A6969"],"infoHash":"5d8ae95d00fd0e8fb9ad40e416d20e4b211bdc24","infoHashBuffer":{"type":"Buffer","data":[93,138,233,93,0,253,14,143,185,173,64,228,22,210,14,75,33,27,220,36]},"announce":[],"urlList":[]}}